<?xml version="1.0" encoding="utf-8"?>
<!-- Svg Vector Icons : http://www.onlinewebfonts.com/icon -->
<!DOCTYPE svg PUBLIC "-//W3C//DTD SVG 1.1//EN" "http://www.w3.org/Graphics/SVG/1.1/DTD/svg11.dtd">
<svg version="1.1" xmlns="http://www.w3.org/2000/svg" xmlns:xlink="http://www.w3.org/1999/xlink" x="0px" y="0px" viewBox="0 0 256 256" enable-background="new 0 0 256 256" xml:space="preserve">
<g><g><g><path fill="#000000" d="M191.4,10.6c-7.6,1.7-13.4,4.3-19.1,8.5c-1.9,1.4-13.6,12.8-26,25.3c-24,24.1-25.4,25.9-28.7,34.5c-2.4,6.6-3.7,16.1-2.8,20.9c0.4,1.8,0.6,1.6,34.9-32.6c33.7-33.6,34.6-34.5,38.8-36.3c3.8-1.8,4.9-2,10.3-2.2c5-0.2,6.6,0,9.7,1c4.9,1.6,8.4,4,12,7.8c8.7,9.5,9.7,23.2,2.5,34.1c-1,1.5-16.8,17.7-35,35.9c-18.2,18.2-33,33.3-33,33.6c0,0.3,3.2,0.3,7.3,0.2c10.2-0.4,17.3-2.7,25.2-8c3.4-2.2,46-44.7,49.4-49.1c6-8,8.7-15.7,9.1-26.2c0.3-8.2-0.7-14.1-3.4-20.3c-5.6-12.6-17.4-22.7-30.9-26.3C206.9,10,196.1,9.6,191.4,10.6z"/><path fill="#000000" d="M121.5,121.6L102,141.1l6.6,6.5l6.5,6.6l19.5-19.5l19.5-19.5l-6.2-6.4c-3.5-3.6-6.4-6.5-6.6-6.6C141.1,102.2,132.2,110.9,121.5,121.6z"/><path fill="#000000" d="M88.5,115.2c-7.4,1.1-15.1,4.3-21,8.7c-4.6,3.5-47.5,46.7-49.8,50.1c-2.5,3.8-5.4,10.1-6.6,14.9c-1.4,5.4-1.4,17.3,0,22.5c2.3,8.6,7.2,16.6,13.7,22.6c4.8,4.5,10,7.6,16.9,10c5.2,1.8,5.8,1.9,14.2,1.9c7.7,0,9.4-0.2,13.1-1.3c5.5-1.8,10.8-4.4,15.1-7.7c4.5-3.4,46.9-46,49.2-49.6c2.5-3.7,5.5-10.3,6.7-14.4c1-3.8,1.8-17.9,1-17.9c-0.3,0-15.4,14.9-33.6,33c-18.2,18.2-34.4,34-36.1,35.1c-15.2,10.2-35.8,3-41.8-14.6c-1-3.1-1.1-4.6-1-9.6c0.2-5.3,0.5-6.5,2.2-10.3c1.9-4.2,2.7-5,36.3-38.8c34.2-34.3,34.3-34.5,32.6-34.9C97.4,114.5,92.4,114.6,88.5,115.2z"/></g></g></g>
</svg>