<svg xmlns="http://www.w3.org/2000/svg" fill="none" viewBox="0 0 116 114"><path fill="#A5B5C9" d="M57.903 66.462c5.36 0 9.706-4.27 9.706-9.538 0-5.268-4.345-9.538-9.706-9.538-5.36 0-9.705 4.27-9.705 9.538 0 5.268 4.345 9.538 9.705 9.538Z"></path><path fill="#A5B5C9" d="M57.903 78.774c-13.63 0-25.539-1.577-34.452-4.579-5.78-1.938-10.691-4.522-14.19-7.467-3.712-3.116-5.684-6.517-5.684-9.804 0-6.308 7.037-12.483 18.85-16.51 9.666-3.307 22.272-5.15 35.457-5.15 12.953 0 25.385 1.786 34.993 5.054 5.626 1.9 10.363 4.37 13.727 7.106 3.654 3.002 5.587 6.29 5.587 9.5 0 6.555-7.868 13.186-20.551 17.31-8.97 2.925-20.957 4.54-33.737 4.54Zm0-38.95c-12.508 0-24.882 1.786-33.93 4.883-10.865 3.724-15.737 8.816-15.737 12.217 0 3.534 5.24 9.101 16.723 12.958 8.43 2.831 19.836 4.332 32.944 4.332 12.296 0 23.761-1.52 32.287-4.313 11.929-3.895 17.381-9.462 17.381-12.977 0-1.805-1.392-3.933-3.925-6.004-2.919-2.394-7.173-4.579-12.257-6.308-9.145-3.078-21.035-4.788-33.486-4.788Z"></path><path fill="#A5B5C9" d="M35.883 104.462c-1.972 0-3.712-.418-5.182-1.254-5.548-3.154-7.482-12.236-5.142-24.301 1.914-9.899 6.592-21.527 13.185-32.756 6.477-11.02 14.249-20.71 21.924-27.265 4.485-3.838 9.029-6.65 13.127-8.132 4.466-1.615 8.333-1.615 11.156-.019 5.78 3.268 7.694 13.3 4.988 26.144-1.914 9.12-6.477 20.121-12.857 31.008-6.805 11.59-14.152 20.938-21.247 27.037-4.602 3.952-9.338 6.84-13.669 8.341-2.262.798-4.389 1.197-6.283 1.197Zm4.852-57.171 2.011 1.14c-6.245 10.64-10.865 22.059-12.644 31.331-2.146 11.115-.077 17.803 2.9 19.494.735.418 1.701.646 2.88.646 3.848 0 9.9-2.394 16.898-8.398 6.709-5.757 13.727-14.725 20.28-25.878 6.149-10.469 10.518-20.995 12.335-29.64 2.533-12.103.348-19.513-2.764-21.28-1.586-.893-4.157-.779-7.25.342-3.577 1.292-7.618 3.819-11.678 7.296-7.288 6.232-14.732 15.504-20.957 26.106l-2.01-1.159Z"></path><path fill="#A5B5C9" d="M79.924 104.519c-5.259 0-11.929-3.116-18.889-9.006-7.772-6.574-15.679-16.36-22.291-27.588-6.496-11.02-11.136-22.477-13.089-32.3-1.14-5.738-1.353-11.001-.618-15.238.812-4.617 2.726-7.904 5.568-9.52 5.761-3.286 15.563.096 25.539 8.817 7.076 6.175 14.5 15.56 20.9 26.429 6.824 11.59 11.406 22.515 13.223 31.597 1.18 5.89 1.373 11.362.542 15.808-.89 4.73-2.9 8.094-5.8 9.747-1.45.836-3.171 1.254-5.085 1.254ZM42.765 65.645c6.264 10.64 14.036 20.273 21.306 26.41 8.719 7.372 15.64 8.968 18.637 7.258 3.113-1.767 5.394-9.006 3.035-20.71-1.74-8.588-6.128-19.038-12.702-30.191-6.167-10.47-13.262-19.456-19.971-25.308-9.396-8.208-17.013-10.051-20.126-8.284-1.585.893-2.765 3.154-3.325 6.346-.638 3.686-.445 8.398.599 13.585 1.856 9.329 6.303 20.292 12.547 30.894Z"></path></svg>