<svg width="13" height="13" viewBox="0 0 13 13" fill="none" xmlns="http://www.w3.org/2000/svg">
<path fill-rule="evenodd" clip-rule="evenodd" d="M2.03125 0H10.9688C11.8662 0 12.5938 0.727537 12.5938 1.625C12.5938 2.52246 11.8662 3.25 10.9688 3.25H6.90625V4.875H10.9688C11.8662 4.875 12.5938 5.60254 12.5938 6.5C12.5938 7.39746 11.8662 8.125 10.9688 8.125H6.90625V9.75H10.9688C11.8662 9.75 12.5938 10.4775 12.5938 11.375C12.5938 12.2725 11.8662 13 10.9688 13H2.03125C1.13379 13 0.40625 12.2725 0.40625 11.375C0.40625 10.4775 1.13379 9.75 2.03125 9.75H5.6875V8.125H2.03125C1.13379 8.125 0.40625 7.39746 0.40625 6.5C0.40625 5.60254 1.13379 4.875 2.03125 4.875H5.6875V3.25H2.03125C1.13379 3.25 0.40625 2.52246 0.40625 1.625C0.40625 0.727537 1.13379 0 2.03125 0ZM1.21875 6.5C1.21875 6.05127 1.58252 5.6875 2.03125 5.6875H10.9688C11.4175 5.6875 11.7812 6.05127 11.7812 6.5C11.7812 6.94873 11.4175 7.3125 10.9688 7.3125H2.03125C1.58252 7.3125 1.21875 6.94873 1.21875 6.5Z" fill="#1A3352"/>
</svg>
